<?xml version="1.0" encoding="UTF-8"?>
<svg width="1200" height="1000" xmlns="http://www.w3.org/2000/svg">
  <!-- Styles -->
  <style>
    .actor { font: 14px sans-serif; }
    .lifeline { stroke: #333; stroke-width: 1; stroke-dasharray: 5,5; }
    .message { stroke: #333; stroke-width: 1; marker-end: url(#arrowhead); }
    .activation { fill: #f0f0f0; stroke: #333; }
    .note { fill: #fffacd; stroke: #333; }
    .note-text { font: 12px sans-serif; }
  </style>

  <!-- Arrow Marker -->
  <defs>
    <marker id="arrowhead" markerWidth="10" markerHeight="7" refX="9" refY="3.5" orient="auto">
      <polygon points="0 0, 10 3.5, 0 7" fill="#333"/>
    </marker>
  </defs>

  <!-- Actors -->
  <g class="actor">
    <text x="100" y="30" text-anchor="middle">Farmer</text>
    <text x="300" y="30" text-anchor="middle">Frontend</text>
    <text x="500" y="30" text-anchor="middle">Auth Service</text>
    <text x="700" y="30" text-anchor="middle">API</text>
    <text x="900" y="30" text-anchor="middle">Database</text>
  </g>

  <!-- Lifelines -->
  <line class="lifeline" x1="100" y1="40" x2="100" y2="950"/>
  <line class="lifeline" x1="300" y1="40" x2="300" y2="950"/>
  <line class="lifeline" x1="500" y1="40" x2="500" y2="950"/>
  <line class="lifeline" x1="700" y1="40" x2="700" y2="950"/>
  <line class="lifeline" x1="900" y1="40" x2="900" y2="950"/>

  <!-- Authentication Flow -->
  <g transform="translate(0,100)">
    <line class="message" x1="100" y1="0" x2="300" y2="0"/>
    <text x="200" y="-5" text-anchor="middle" class="note-text">1. Login/Register</text>
    
    <line class="message" x1="300" y1="40" x2="500" y2="40"/>
    <text x="400" y="35" text-anchor="middle" class="note-text">2. Auth Request</text>
    
    <line class="message" x1="500" y1="80" x2="900" y2="80"/>
    <text x="700" y="75" text-anchor="middle" class="note-text">3. Verify Credentials</text>
    
    <line class="message" x1="900" y1="120" x2="500" y2="120" stroke-dasharray="5,5"/>
    <text x="700" y="115" text-anchor="middle" class="note-text">4. Auth Response</text>
    
    <line class="message" x1="500" y1="160" x2="300" y2="160" stroke-dasharray="5,5"/>
    <text x="400" y="155" text-anchor="middle" class="note-text">5. Auth Token</text>
  </g>

  <!-- Product Management Flow -->
  <g transform="translate(0,300)">
    <line class="message" x1="100" y1="0" x2="300" y2="0"/>
    <text x="200" y="-5" text-anchor="middle" class="note-text">6. Add/Update Product</text>
    
    <line class="message" x1="300" y1="40" x2="700" y2="40"/>
    <text x="500" y="35" text-anchor="middle" class="note-text">7. Product Data</text>
    
    <line class="message" x1="700" y1="80" x2="900" y2="80"/>
    <text x="800" y="75" text-anchor="middle" class="note-text">8. Store Product</text>
    
    <line class="message" x1="900" y1="120" x2="300" y2="120" stroke-dasharray="5,5"/>
    <text x="600" y="115" text-anchor="middle" class="note-text">9. Confirmation</text>
  </g>

  <!-- Order Processing Flow -->
  <g transform="translate(0,500)">
    <rect class="note" x="150" y="-20" width="200" height="40"/>
    <text x="250" y="5" text-anchor="middle" class="note-text">Buyer initiates order</text>
    
    <line class="message" x1="300" y1="40" x2="700" y2="40"/>
    <text x="500" y="35" text-anchor="middle" class="note-text">10. Create Order</text>
    
    <line class="message" x1="700" y1="80" x2="900" y2="80"/>
    <text x="800" y="75" text-anchor="middle" class="note-text">11. Save Order</text>
    
    <line class="message" x1="900" y1="120" x2="100" y2="120" stroke-dasharray="5,5"/>
    <text x="500" y="115" text-anchor="middle" class="note-text">12. Notify Farmer</text>
  </g>

  <!-- Chat/Messaging Flow -->
  <g transform="translate(0,700)">
    <line class="message" x1="100" y1="0" x2="300" y2="0"/>
    <text x="200" y="-5" text-anchor="middle" class="note-text">13. Send Message</text>
    
    <line class="message" x1="300" y1="40" x2="700" y2="40"/>
    <text x="500" y="35" text-anchor="middle" class="note-text">14. Process Message</text>
    
    <line class="message" x1="700" y1="80" x2="900" y2="80"/>
    <text x="800" y="75" text-anchor="middle" class="note-text">15. Store Message</text>
    
    <rect class="note" x="750" y="100" width="200" height="40"/>
    <text x="850" y="125" text-anchor="middle" class="note-text">Real-time updates via
Supabase Realtime</text>
  </g>
</svg>